WixMadeforText_MdIt.ufo
<glyph name="exclam" format="2">
	<unicode hex="0021"/>
	<advance width="238"/>
	<outline>
		<contour>
			<point x="146" y="213" type="line"/>
			<point x="161" y="266"/>
			<point x="228" y="510"/>
			<point x="258" y="618" type="curve" smooth="yes"/>
			<point x="269" y="657"/>
			<point x="273" y="672"/>
			<point x="273" y="682" type="curve" smooth="yes"/>
			<point x="273" y="713"/>
			<point x="254" y="731"/>
			<point x="223" y="731" type="curve" smooth="yes"/>
			<point x="205" y="731"/>
			<point x="190" y="726"/>
			<point x="179" y="716" type="curve" smooth="yes"/>
			<point x="165" y="703"/>
			<point x="157" y="684"/>
			<point x="153" y="650" type="curve" smooth="yes"/>
			<point x="145" y="597"/>
			<point x="92" y="260"/>
			<point x="86" y="213" type="curve"/>
		</contour>
		<contour>
			<point x="15" y="45" type="curve" smooth="yes"/>
			<point x="15" y="11"/>
			<point x="40" y="-12"/>
			<point x="74" y="-12" type="curve" smooth="yes"/>
			<point x="120" y="-12"/>
			<point x="154" y="21"/>
			<point x="154" y="68" type="curve" smooth="yes"/>
			<point x="154" y="102"/>
			<point x="129" y="127"/>
			<point x="95" y="127" type="curve" smooth="yes"/>
			<point x="49" y="127"/>
			<point x="15" y="93"/>
		</contour>
	</outline>
</glyph>
<glyph name="numbersign" format="2">
	<unicode hex="0023"/>
	<advance width="628"/>
	<outline>
		<contour>
			<point x="269" y="0" type="line"/>
			<point x="356" y="0" type="line"/>
			<point x="643" y="715" type="line"/>
			<point x="556" y="715" type="line"/>
		</contour>
		<contour>
			<point x="26" y="185" type="line"/>
			<point x="509" y="185" type="line"/>
			<point x="540" y="263" type="line"/>
			<point x="58" y="263" type="line"/>
		</contour>
		<contour>
			<point x="32" y="0" type="line"/>
			<point x="119" y="0" type="line"/>
			<point x="406" y="715" type="line"/>
			<point x="319" y="715" type="line"/>
		</contour>
		<contour>
			<point x="134" y="452" type="line"/>
			<point x="616" y="452" type="line"/>
			<point x="648" y="530" type="line"/>
			<point x="166" y="530" type="line"/>
		</contour>
	</outline>
</glyph>
<glyph name="quotesingle" format="2">
	<unicode hex="0027"/>
	<advance width="259"/>
	<outline>
		<contour>
			<point x="197" y="473" type="line"/>
			<point x="246" y="589"/>
			<point x="275" y="672"/>
			<point x="275" y="699" type="curve" smooth="yes"/>
			<point x="275" y="725"/>
			<point x="257" y="741"/>
			<point x="232" y="741" type="curve" smooth="yes"/>
			<point x="202" y="741"/>
			<point x="179" y="721"/>
			<point x="172" y="686" type="curve" smooth="yes"/>
			<point x="166" y="658"/>
			<point x="160" y="567"/>
			<point x="157" y="473" type="curve"/>
		</contour>
	</outline>
</glyph>
<glyph name="parenleft" format="2">
	<unicode hex="0028"/>
	<advance width="338"/>
	<outline>
		<contour>
			<point x="220" y="-129" type="line"/>
			<point x="180" y="-34"/>
			<point x="161" y="57"/>
			<point x="161" y="156" type="curve" smooth="yes"/>
			<point x="161" y="369"/>
			<point x="256" y="570"/>
			<point x="405" y="731" type="curve"/>
			<point x="304" y="731" type="line"/>
			<point x="155" y="580"/>
			<point x="61" y="369"/>
			<point x="61" y="152" type="curve" smooth="yes"/>
			<point x="61" y="55"/>
			<point x="80" y="-39"/>
			<point x="124" y="-129" type="curve"/>
		</contour>
	</outline>
</glyph>
<glyph name="plus" format="2">
	<unicode hex="002B"/>
	<advance width="632"/>
	<outline>
		<contour>
			<point x="252" y="155" type="line"/>
			<point x="333" y="155" type="line"/>
			<point x="367" y="316" type="line"/>
			<point x="518" y="316" type="line"/>
			<point x="535" y="398" type="line"/>
			<point x="384" y="398" type="line"/>
			<point x="418" y="559" type="line"/>
			<point x="337" y="559" type="line"/>
			<point x="303" y="398" type="line"/>
			<point x="152" y="398" type="line"/>
			<point x="135" y="316" type="line"/>
			<point x="286" y="316" type="line"/>
		</contour>
	</outline>
</glyph>
<glyph name="hyphen" format="2">
	<unicode hex="002D"/>
	<advance width="322"/>
	<outline>
		<contour>
			<point x="29" y="229" type="line"/>
			<point x="287" y="229" type="line"/>
			<point x="305" y="317" type="line"/>
			<point x="47" y="317" type="line"/>
		</contour>
	</outline>
</glyph>
<glyph name="period" format="2">
	<unicode hex="002E"/>
	<advance width="243"/>
	<outline>
		<contour>
			<point x="14" y="47" type="curve" smooth="yes"/>
			<point x="14" y="11"/>
			<point x="39" y="-12"/>
			<point x="74" y="-12" type="curve" smooth="yes"/>
			<point x="119" y="-12"/>
			<point x="152" y="21"/>
			<point x="152" y="67" type="curve" smooth="yes"/>
			<point x="152" y="102"/>
			<point x="127" y="127"/>
			<point x="92" y="127" type="curve" smooth="yes"/>
			<point x="47" y="127"/>
			<point x="14" y="92"/>
		</contour>
	</outline>
</glyph>
<glyph name="zero" format="2">
	<unicode hex="0030"/>
	<advance width="623"/>
	<outline>
		<contour>
			<point x="271" y="-16" type="curve" smooth="yes"/>
			<point x="454" y="-16"/>
			<point x="601" y="210"/>
			<point x="601" y="488" type="curve" smooth="yes"/>
			<point x="601" y="643"/>
			<point x="528" y="731"/>
			<point x="399" y="731" type="curve" smooth="yes"/>
			<point x="216" y="731"/>
			<point x="69" y="505"/>
			<point x="69" y="227" type="curve" smooth="yes"/>
			<point x="69" y="72"/>
			<point x="142" y="-16"/>
		</contour>
		<contour>
			<point x="279" y="69" type="curve" smooth="yes"/>
			<point x="210" y="69"/>
			<point x="173" y="122"/>
			<point x="173" y="221" type="curve" smooth="yes"/>
			<point x="173" y="445"/>
			<point x="276" y="646"/>
			<point x="391" y="646" type="curve" smooth="yes"/>
			<point x="460" y="646"/>
			<point x="497" y="593"/>
			<point x="497" y="494" type="curve" smooth="yes"/>
			<point x="497" y="270"/>
			<point x="394" y="69"/>
		</contour>
	</outline>
</glyph>
<glyph name="three" format="2">
	<unicode hex="0033"/>
	<advance width="574"/>
	<outline>
		<contour>
			<point x="10" y="122" type="line"/>
			<point x="53" y="36"/>
			<point x="151" y="-16"/>
			<point x="254" y="-16" type="curve" smooth="yes"/>
			<point x="401" y="-16"/>
			<point x="517" y="83"/>
			<point x="517" y="216" type="curve" smooth="yes"/>
			<point x="517" y="325"/>
			<point x="435" y="395"/>
			<point x="298" y="395" type="curve" smooth="yes"/>
			<point x="279" y="395" type="line"/>
			<point x="270" y="357" type="line"/>
			<point x="319" y="357" type="line" smooth="yes"/>
			<point x="451" y="357"/>
			<point x="564" y="441"/>
			<point x="564" y="556" type="curve" smooth="yes"/>
			<point x="564" y="665"/>
			<point x="474" y="731"/>
			<point x="357" y="731" type="curve" smooth="yes"/>
			<point x="267" y="731"/>
			<point x="184" y="693"/>
			<point x="123" y="620" type="curve"/>
			<point x="179" y="549" type="line"/>
			<point x="226" y="611"/>
			<point x="285" y="644"/>
			<point x="347" y="644" type="curve" smooth="yes"/>
			<point x="416" y="644"/>
			<point x="459" y="607"/>
			<point x="459" y="545" type="curve" smooth="yes"/>
			<point x="459" y="470"/>
			<point x="384" y="415"/>
			<point x="296" y="415" type="curve" smooth="yes"/>
			<point x="238" y="415" type="line"/>
			<point x="220" y="329" type="line"/>
			<point x="279" y="329" type="line" smooth="yes"/>
			<point x="361" y="329"/>
			<point x="412" y="282"/>
			<point x="412" y="211" type="curve" smooth="yes"/>
			<point x="412" y="129"/>
			<point x="344" y="70"/>
			<point x="260" y="70" type="curve" smooth="yes"/>
			<point x="179" y="70"/>
			<point x="123" y="110"/>
			<point x="86" y="184" type="curve"/>
		</contour>
	</outline>
</glyph>
<glyph name="four" format="2">
	<unicode hex="0034"/>
	<advance width="639"/>
	<outline>
		<contour>
			<point x="28" y="163" type="line"/>
			<point x="579" y="163" type="line"/>
			<point x="597" y="248" type="line"/>
			<point x="93" y="248" type="line"/>
			<point x="101" y="194" type="line"/>
			<point x="515" y="623" type="line"/>
			<point x="480" y="623" type="line"/>
			<point x="347" y="0" type="line"/>
			<point x="448" y="0" type="line"/>
			<point x="600" y="715" type="line"/>
			<point x="499" y="715" type="line"/>
			<point x="47" y="248" type="line"/>
		</contour>
	</outline>
</glyph>
<glyph name="seven" format="2">
	<unicode hex="0037"/>
	<advance width="588"/>
	<outline>
		<contour>
			<point x="38" y="0" type="line"/>
			<point x="156" y="0" type="line"/>
			<point x="612" y="630" type="line"/>
			<point x="630" y="715" type="line"/>
			<point x="153" y="715" type="line"/>
			<point x="135" y="630" type="line"/>
			<point x="540" y="630" type="line"/>
			<point x="537" y="681" type="line"/>
		</contour>
	</outline>
</glyph>
<glyph name="less" format="2">
	<unicode hex="003C"/>
	<advance width="632"/>
	<outline>
		<contour>
			<point x="129" y="304" type="line"/>
			<point x="481" y="127" type="line"/>
			<point x="500" y="216" type="line"/>
			<point x="211" y="356" type="line"/>
			<point x="559" y="495" type="line"/>
			<point x="578" y="591" type="line"/>
			<point x="152" y="415" type="line"/>
		</contour>
	</outline>
</glyph>
<glyph name="greater" format="2">
	<unicode hex="003E"/>
	<advance width="632"/>
	<outline>
		<contour>
			<point x="545" y="415" type="line"/>
			<point x="193" y="591" type="line"/>
			<point x="174" y="502" type="line"/>
			<point x="462" y="363" type="line"/>
			<point x="114" y="224" type="line"/>
			<point x="95" y="127" type="line"/>
			<point x="522" y="303" type="line"/>
		</contour>
	</outline>
</glyph>
<glyph name="A" format="2">
	<unicode hex="0041"/>
	<advance width="712"/>
	<outline>
		<contour>
			<point x="151" y="180" type="line"/>
			<point x="534" y="180" type="line"/>
			<point x="553" y="269" type="line"/>
			<point x="170" y="269" type="line"/>
		</contour>
		<contour>
			<point x="-22" y="0" type="line"/>
			<point x="90" y="0" type="line"/>
			<point x="465" y="646" type="line"/>
			<point x="429" y="646" type="line"/>
			<point x="530" y="0" type="line"/>
			<point x="634" y="0" type="line"/>
			<point x="515" y="715" type="line"/>
			<point x="402" y="715" type="line"/>
		</contour>
	</outline>
	<anchor name="ogonek.UC" x="522" y="-30"/>
	<anchor name="top.UC" x="457" y="750"/>
</glyph>
<glyph name="F" format="2">
	<unicode hex="0046"/>
	<advance width="573"/>
	<outline>
		<contour>
			<point x="47" y="0" type="line"/>
			<point x="150" y="0" type="line"/>
			<point x="282" y="626" type="line"/>
			<point x="618" y="626" type="line"/>
			<point x="637" y="715" type="line"/>
			<point x="198" y="715" type="line"/>
		</contour>
		<contour>
			<point x="208" y="318" type="line"/>
			<point x="534" y="318" type="line"/>
			<point x="553" y="407" type="line"/>
			<point x="227" y="407" type="line"/>
		</contour>
	</outline>
</glyph>
<glyph name="G" format="2">
	<unicode hex="0047"/>
	<advance width="764"/>
	<outline>
		<contour>
			<point x="559" y="0" type="line"/>
			<point x="655" y="0" type="line"/>
			<point x="736" y="381" type="line"/>
			<point x="431" y="381" type="line"/>
			<point x="413" y="294" type="line"/>
			<point x="662" y="294" type="line"/>
			<point x="628" y="332" type="line"/>
			<point x="588" y="142" type="line"/>
			<point x="617" y="213" type="line"/>
			<point x="566" y="128"/>
			<point x="480" y="76"/>
			<point x="384" y="76" type="curve" smooth="yes"/>
			<point x="263" y="76"/>
			<point x="182" y="165"/>
			<point x="182" y="298" type="curve" smooth="yes"/>
			<point x="182" y="485"/>
			<point x="314" y="639"/>
			<point x="476" y="639" type="curve" smooth="yes"/>
			<point x="560" y="639"/>
			<point x="621" y="605"/>
			<point x="666" y="531" type="curve"/>
			<point x="744" y="593" type="line"/>
			<point x="688" y="682"/>
			<point x="594" y="731"/>
			<point x="481" y="731" type="curve" smooth="yes"/>
			<point x="258" y="731"/>
			<point x="74" y="535"/>
			<point x="74" y="298" type="curve" smooth="yes"/>
			<point x="74" y="109"/>
			<point x="192" y="-16"/>
			<point x="372" y="-16" type="curve" smooth="yes"/>
			<point x="466" y="-16"/>
			<point x="545" y="24"/>
			<point x="603" y="102" type="curve"/>
			<point x="580" y="103" type="line"/>
		</contour>
	</outline>
	<anchor name="bottom.UC" x="371" y="-50"/>
	<anchor name="top.UC" x="479" y="750"/>
</glyph>
<glyph name="I" format="2">
	<unicode hex="0049"/>
	<advance width="299"/>
	<outline>
		<contour>
			<point x="46" y="0" type="line"/>
			<point x="149" y="0" type="line"/>
			<point x="300" y="715" type="line"/>
			<point x="197" y="715" type="line"/>
		</contour>
	</outline>
	<anchor name="ogonek.UC" x="46" y="-30"/>
	<anchor name="top.UC" x="257" y="750"/>
</glyph>
<glyph name="R" format="2">
	<unicode hex="0052"/>
	<advance width="688"/>
	<outline>
		<contour>
			<point x="482" y="0" type="line"/>
			<point x="600" y="0" type="line"/>
			<point x="415" y="333" type="line"/>
			<point x="304" y="333" type="line"/>
		</contour>
		<contour>
			<point x="46" y="0" type="line"/>
			<point x="149" y="0" type="line"/>
			<point x="281" y="626" type="line"/>
			<point x="427" y="626" type="line" smooth="yes"/>
			<point x="497" y="626"/>
			<point x="537" y="592"/>
			<point x="537" y="530" type="curve" smooth="yes"/>
			<point x="537" y="442"/>
			<point x="475" y="387"/>
			<point x="376" y="387" type="curve" smooth="yes"/>
			<point x="220" y="387" type="line"/>
			<point x="201" y="298" type="line"/>
			<point x="362" y="298" type="line" smooth="yes"/>
			<point x="529" y="298"/>
			<point x="641" y="393"/>
			<point x="641" y="535" type="curve" smooth="yes"/>
			<point x="641" y="647"/>
			<point x="566" y="715"/>
			<point x="440" y="715" type="curve" smooth="yes"/>
			<point x="197" y="715" type="line"/>
		</contour>
	</outline>
	<anchor name="top.UC" x="379" y="750"/>
</glyph>
<glyph name="X" format="2">
	<unicode hex="0058"/>
	<advance width="697"/>
	<outline>
		<contour>
			<point x="-15" y="0" type="line"/>
			<point x="112" y="0" type="line"/>
			<point x="386" y="325" type="line"/>
			<point x="347" y="325" type="line"/>
			<point x="492" y="0" type="line"/>
			<point x="607" y="0" type="line"/>
			<point x="424" y="391" type="line"/>
			<point x="423" y="349" type="line"/>
			<point x="735" y="715" type="line"/>
			<point x="612" y="715" type="line"/>
			<point x="365" y="414" type="line"/>
			<point x="404" y="414" type="line"/>
			<point x="275" y="715" type="line"/>
			<point x="161" y="715" type="line"/>
			<point x="327" y="349" type="line"/>
			<point x="325" y="391" type="line"/>
		</contour>
	</outline>
</glyph>
<glyph name="Z" format="2">
	<unicode hex="005A"/>
	<advance width="591"/>
	<outline>
		<contour>
			<point x="-7" y="0" type="line"/>
			<point x="490" y="0" type="line"/>
			<point x="509" y="90" type="line"/>
			<point x="138" y="90" type="line"/>
			<point x="611" y="625" type="line"/>
			<point x="630" y="715" type="line"/>
			<point x="148" y="715" type="line"/>
			<point x="129" y="625" type="line"/>
			<point x="486" y="625" type="line"/>
			<point x="13" y="90" type="line"/>
		</contour>
	</outline>
	<anchor name="top.UC" x="387" y="750"/>
</glyph>
<glyph name="bracketleft" format="2">
	<unicode hex="005B"/>
	<advance width="312"/>
	<outline>
		<contour>
			<point x="0" y="-129" type="line"/>
			<point x="202" y="-129" type="line"/>
			<point x="219" y="-48" type="line"/>
			<point x="115" y="-48" type="line"/>
			<point x="263" y="650" type="line"/>
			<point x="366" y="650" type="line"/>
			<point x="384" y="731" type="line"/>
			<point x="182" y="731" type="line"/>
		</contour>
	</outline>
</glyph>
<glyph name="asciicircum" format="2">
	<unicode hex="005E"/>
	<advance width="632"/>
	<outline>
		<contour>
			<point x="112" y="354" type="line"/>
			<point x="213" y="354" type="line"/>
			<point x="449" y="715" type="line"/>
			<point x="355" y="715" type="line"/>
		</contour>
		<contour>
			<point x="461" y="354" type="line"/>
			<point x="556" y="354" type="line"/>
			<point x="464" y="715" type="line"/>
			<point x="378" y="715" type="line"/>
		</contour>
	</outline>
</glyph>
<glyph name="d" format="2">
	<unicode hex="0064"/>
	<advance width="615"/>
	<outline>
		<contour>
			<point x="393" y="0" type="line"/>
			<point x="491" y="0" type="line"/>
			<point x="644" y="720" type="line"/>
			<point x="544" y="720" type="line"/>
			<point x="465" y="345" type="line"/>
			<point x="487" y="355" type="line"/>
			<point x="479" y="454"/>
			<point x="420" y="513"/>
			<point x="321" y="513" type="curve" smooth="yes"/>
			<point x="165" y="513"/>
			<point x="43" y="368"/>
			<point x="43" y="198" type="curve" smooth="yes"/>
			<point x="43" y="67"/>
			<point x="113" y="-16"/>
			<point x="231" y="-16" type="curve" smooth="yes"/>
			<point x="349" y="-16"/>
			<point x="423" y="73"/>
			<point x="467" y="225" type="curve"/>
			<point x="447" y="267" type="line"/>
			<point x="410" y="145"/>
			<point x="344" y="69"/>
			<point x="262" y="69" type="curve" smooth="yes"/>
			<point x="191" y="69"/>
			<point x="148" y="119"/>
			<point x="148" y="204" type="curve" smooth="yes"/>
			<point x="148" y="327"/>
			<point x="228" y="428"/>
			<point x="328" y="428" type="curve" smooth="yes"/>
			<point x="399" y="428"/>
			<point x="443" y="375"/>
			<point x="443" y="286" type="curve" smooth="yes"/>
			<point x="443" y="256"/>
			<point x="439" y="226"/>
			<point x="432" y="190" type="curve" smooth="yes"/>
		</contour>
	</outline>
	<anchor name="top_right" x="724" y="540"/>
</glyph>
<glyph name="h" format="2">
	<unicode hex="0068"/>
	<advance width="583"/>
	<outline>
		<contour>
			<point x="27" y="0" type="line"/>
			<point x="127" y="0" type="line"/>
			<point x="161" y="158" type="line" smooth="yes"/>
			<point x="200" y="338"/>
			<point x="260" y="427"/>
			<point x="352" y="427" type="curve" smooth="yes"/>
			<point x="401" y="427"/>
			<point x="430" y="397"/>
			<point x="430" y="348" type="curve" smooth="yes"/>
			<point x="430" y="333"/>
			<point x="427" y="308"/>
			<point x="422" y="283" type="curve" smooth="yes"/>
			<point x="361" y="0" type="line"/>
			<point x="461" y="0" type="line"/>
			<point x="522" y="283" type="line" smooth="yes"/>
			<point x="529" y="318"/>
			<point x="532" y="342"/>
			<point x="532" y="363" type="curve" smooth="yes"/>
			<point x="532" y="456"/>
			<point x="474" y="513"/>
			<point x="388" y="513" type="curve" smooth="yes"/>
			<point x="287" y="513"/>
			<point x="199" y="428"/>
			<point x="167" y="292" type="curve"/>
			<point x="199" y="343" type="line"/>
			<point x="280" y="720" type="line"/>
			<point x="180" y="720" type="line"/>
		</contour>
	</outline>
	<anchor name="bottom.LC" x="239" y="-50"/>
</glyph>
<glyph name="n" format="2">
	<unicode hex="006E"/>
	<advance width="583"/>
	<outline>
		<contour>
			<point x="27" y="0" type="line"/>
			<point x="127" y="0" type="line"/>
			<point x="160" y="158" type="line" smooth="yes"/>
			<point x="199" y="338"/>
			<point x="260" y="427"/>
			<point x="352" y="427" type="curve" smooth="yes"/>
			<point x="400" y="427"/>
			<point x="429" y="397"/>
			<point x="429" y="348" type="curve" smooth="yes"/>
			<point x="429" y="333"/>
			<point x="426" y="308"/>
			<point x="421" y="283" type="curve" smooth="yes"/>
			<point x="361" y="0" type="line"/>
			<point x="461" y="0" type="line"/>
			<point x="521" y="283" type="line" smooth="yes"/>
			<point x="528" y="318"/>
			<point x="531" y="342"/>
			<point x="531" y="363" type="curve" smooth="yes"/>
			<point x="531" y="456"/>
			<point x="474" y="513"/>
			<point x="388" y="513" type="curve" smooth="yes"/>
			<point x="287" y="513"/>
			<point x="199" y="428"/>
			<point x="167" y="292" type="curve"/>
			<point x="198" y="343" type="line"/>
			<point x="231" y="497" type="line"/>
			<point x="132" y="497" type="line"/>
		</contour>
	</outline>
	<anchor name="bottom.LC" x="249" y="-50"/>
	<anchor name="top.LC" x="373" y="544"/>
</glyph>
<glyph name="o" format="2">
	<unicode hex="006F"/>
	<advance width="595"/>
	<outline>
		<contour>
			<point x="43" y="203" type="curve" smooth="yes"/>
			<point x="43" y="70"/>
			<point x="132" y="-16"/>
			<point x="270" y="-16" type="curve" smooth="yes"/>
			<point x="425" y="-16"/>
			<point x="552" y="123"/>
			<point x="552" y="294" type="curve" smooth="yes"/>
			<point x="552" y="427"/>
			<point x="463" y="513"/>
			<point x="325" y="513" type="curve" smooth="yes"/>
			<point x="170" y="513"/>
			<point x="43" y="374"/>
		</contour>
		<contour>
			<point x="270" y="70" type="curve" smooth="yes"/>
			<point x="195" y="70"/>
			<point x="148" y="122"/>
			<point x="148" y="203" type="curve" smooth="yes"/>
			<point x="148" y="328"/>
			<point x="227" y="427"/>
			<point x="325" y="427" type="curve" smooth="yes"/>
			<point x="400" y="427"/>
			<point x="447" y="374"/>
			<point x="447" y="294" type="curve" smooth="yes"/>
			<point x="447" y="169"/>
			<point x="369" y="70"/>
		</contour>
	</outline>
	<anchor name="top.LC" x="348" y="544"/>
</glyph>
<glyph name="s" format="2">
	<unicode hex="0073"/>
	<advance width="485"/>
	<outline>
		<contour>
			<point x="-9" y="88" type="line"/>
			<point x="38" y="21"/>
			<point x="125" y="-16"/>
			<point x="214" y="-16" type="curve" smooth="yes"/>
			<point x="336" y="-16"/>
			<point x="430" y="51"/>
			<point x="430" y="154" type="curve" smooth="yes"/>
			<point x="430" y="227"/>
			<point x="377" y="271"/>
			<point x="258" y="299" type="curve" smooth="yes"/>
			<point x="191" y="315"/>
			<point x="166" y="333"/>
			<point x="166" y="363" type="curve" smooth="yes"/>
			<point x="166" y="406"/>
			<point x="207" y="434"/>
			<point x="270" y="434" type="curve" smooth="yes"/>
			<point x="329" y="434"/>
			<point x="374" y="408"/>
			<point x="406" y="359" type="curve"/>
			<point x="475" y="414" type="line"/>
			<point x="430" y="477"/>
			<point x="357" y="513"/>
			<point x="273" y="513" type="curve" smooth="yes"/>
			<point x="155" y="513"/>
			<point x="67" y="445"/>
			<point x="67" y="353" type="curve" smooth="yes"/>
			<point x="67" y="284"/>
			<point x="118" y="239"/>
			<point x="226" y="213" type="curve" smooth="yes"/>
			<point x="301" y="196"/>
			<point x="330" y="177"/>
			<point x="330" y="142" type="curve" smooth="yes"/>
			<point x="330" y="92"/>
			<point x="281" y="63"/>
			<point x="218" y="63" type="curve" smooth="yes"/>
			<point x="149" y="63"/>
			<point x="91" y="95"/>
			<point x="60" y="145" type="curve"/>
		</contour>
	</outline>
	<anchor name="bottom.LC" x="195" y="-50"/>
	<anchor name="top.LC" x="289" y="544"/>
	<guideline y="63"/>
	<guideline x="59" y="325" angle="102"/>
</glyph>
<glyph name="x" format="2">
	<unicode hex="0078"/>
	<advance width="497"/>
	<outline>
		<contour>
			<point x="-46" y="0" type="line"/>
			<point x="73" y="0" type="line"/>
			<point x="267" y="225" type="line"/>
			<point x="220" y="225" type="line"/>
			<point x="325" y="0" type="line"/>
			<point x="436" y="0" type="line"/>
			<point x="284" y="294" type="line"/>
			<point x="286" y="228" type="line"/>
			<point x="527" y="497" type="line"/>
			<point x="408" y="497" type="line"/>
			<point x="242" y="301" type="line"/>
			<point x="272" y="301" type="line"/>
			<point x="184" y="497" type="line"/>
			<point x="74" y="497" type="line"/>
			<point x="209" y="229" type="line"/>
			<point x="218" y="291" type="line"/>
		</contour>
	</outline>
</glyph>
<glyph name="y" format="2">
	<unicode hex="0079"/>
	<advance width="545"/>
	<outline>
		<contour>
			<point x="-20" y="-194" type="line"/>
			<point x="38" y="-194" type="line" smooth="yes"/>
			<point x="127" y="-194"/>
			<point x="166" y="-166"/>
			<point x="215" y="-85" type="curve" smooth="yes"/>
			<point x="566" y="497" type="line"/>
			<point x="462" y="497" type="line"/>
			<point x="211" y="58" type="line"/>
			<point x="244" y="58" type="line"/>
			<point x="179" y="497" type="line"/>
			<point x="76" y="497" type="line"/>
			<point x="169" y="-22" type="line"/>
			<point x="177" y="20" type="line"/>
			<point x="141" y="-45" type="line" smooth="yes"/>
			<point x="115" y="-94"/>
			<point x="91" y="-110"/>
			<point x="51" y="-110" type="curve" smooth="yes"/>
			<point x="-3" y="-110" type="line"/>
		</contour>
	</outline>
	<anchor name="top.LC" x="320" y="544"/>
</glyph>
<glyph name="braceleft" format="2">
	<unicode hex="007B"/>
	<advance width="389"/>
	<outline>
		<contour>
			<point x="82" y="0" type="line" smooth="yes"/>
			<point x="79" y="-16"/>
			<point x="77" y="-30"/>
			<point x="77" y="-43" type="curve" smooth="yes"/>
			<point x="77" y="-101"/>
			<point x="110" y="-129"/>
			<point x="178" y="-129" type="curve" smooth="yes"/>
			<point x="261" y="-129" type="line"/>
			<point x="278" y="-48" type="line"/>
			<point x="225" y="-48" type="line" smooth="yes"/>
			<point x="195" y="-48"/>
			<point x="181" y="-37"/>
			<point x="181" y="-13" type="curve" smooth="yes"/>
			<point x="181" y="-7"/>
			<point x="182" y="3"/>
			<point x="184" y="14" type="curve" smooth="yes"/>
			<point x="218" y="176" type="line" smooth="yes"/>
			<point x="223" y="199"/>
			<point x="226" y="218"/>
			<point x="226" y="230" type="curve" smooth="yes"/>
			<point x="226" y="287"/>
			<point x="193" y="315"/>
			<point x="124" y="315" type="curve"/>
			<point x="120" y="291" type="line"/>
			<point x="204" y="291"/>
			<point x="252" y="333"/>
			<point x="270" y="420" type="curve" smooth="yes"/>
			<point x="307" y="592" type="line" smooth="yes"/>
			<point x="315" y="633"/>
			<point x="335" y="650"/>
			<point x="374" y="650" type="curve" smooth="yes"/>
			<point x="426" y="650" type="line"/>
			<point x="444" y="731" type="line"/>
			<point x="361" y="731" type="line" smooth="yes"/>
			<point x="278" y="731"/>
			<point x="229" y="689"/>
			<point x="210" y="602" type="curve" smooth="yes"/>
			<point x="168" y="402" type="line" smooth="yes"/>
			<point x="159" y="361"/>
			<point x="140" y="343"/>
			<point x="102" y="343" type="curve" smooth="yes"/>
			<point x="70" y="343" type="line"/>
			<point x="52" y="262" type="line"/>
			<point x="84" y="262" type="line" smooth="yes"/>
			<point x="115" y="262"/>
			<point x="129" y="251"/>
			<point x="129" y="226" type="curve" smooth="yes"/>
			<point x="129" y="222"/>
			<point x="127" y="212"/>
			<point x="125" y="203" type="curve" smooth="yes"/>
		</contour>
	</outline>
</glyph>
<glyph name="braceright" format="2">
	<unicode hex="007D"/>
	<advance width="389"/>
	<outline>
		<contour>
			<point x="-31" y="-129" type="line"/>
			<point x="52" y="-129" type="line" smooth="yes"/>
			<point x="135" y="-129"/>
			<point x="184" y="-87"/>
			<point x="203" y="0" type="curve" smooth="yes"/>
			<point x="245" y="204" type="line" smooth="yes"/>
			<point x="254" y="245"/>
			<point x="274" y="262"/>
			<point x="312" y="262" type="curve" smooth="yes"/>
			<point x="344" y="262" type="line"/>
			<point x="361" y="343" type="line"/>
			<point x="329" y="343" type="line" smooth="yes"/>
			<point x="299" y="343"/>
			<point x="285" y="355"/>
			<point x="285" y="380" type="curve" smooth="yes"/>
			<point x="285" y="383"/>
			<point x="285" y="388"/>
			<point x="289" y="403" type="curve" smooth="yes"/>
			<point x="331" y="602" type="line" smooth="yes"/>
			<point x="334" y="618"/>
			<point x="336" y="632"/>
			<point x="336" y="645" type="curve" smooth="yes"/>
			<point x="336" y="703"/>
			<point x="303" y="731"/>
			<point x="235" y="731" type="curve" smooth="yes"/>
			<point x="152" y="731" type="line"/>
			<point x="135" y="650" type="line"/>
			<point x="188" y="650" type="line" smooth="yes"/>
			<point x="218" y="650"/>
			<point x="232" y="639"/>
			<point x="232" y="615" type="curve" smooth="yes"/>
			<point x="232" y="609"/>
			<point x="231" y="599"/>
			<point x="229" y="588" type="curve" smooth="yes"/>
			<point x="196" y="430" type="line" smooth="yes"/>
			<point x="191" y="407"/>
			<point x="187" y="389"/>
			<point x="187" y="377" type="curve" smooth="yes"/>
			<point x="187" y="319"/>
			<point x="220" y="291"/>
			<point x="289" y="291" type="curve"/>
			<point x="294" y="315" type="line"/>
			<point x="210" y="315"/>
			<point x="162" y="273"/>
			<point x="143" y="186" type="curve" smooth="yes"/>
			<point x="106" y="10" type="line" smooth="yes"/>
			<point x="97" y="-31"/>
			<point x="78" y="-48"/>
			<point x="39" y="-48" type="curve" smooth="yes"/>
			<point x="-14" y="-48" type="line"/>
		</contour>
	</outline>
</glyph>
<glyph name="asciitilde" format="2">
	<unicode hex="007E"/>
	<advance width="618"/>
	<outline>
		<contour>
			<point x="239" y="454" type="curve" smooth="yes"/>
			<point x="173" y="454"/>
			<point x="123" y="410"/>
			<point x="77" y="311" type="curve"/>
			<point x="146" y="269" type="line"/>
			<point x="176" y="335"/>
			<point x="201" y="362"/>
			<point x="231" y="362" type="curve" smooth="yes"/>
			<point x="250" y="362"/>
			<point x="267" y="348"/>
			<point x="295" y="319" type="curve" smooth="yes"/>
			<point x="338" y="273"/>
			<point x="365" y="256"/>
			<point x="408" y="256" type="curve" smooth="yes"/>
			<point x="474" y="256"/>
			<point x="524" y="299"/>
			<point x="570" y="399" type="curve"/>
			<point x="501" y="440" type="line"/>
			<point x="471" y="375"/>
			<point x="446" y="348"/>
			<point x="416" y="348" type="curve" smooth="yes"/>
			<point x="397" y="348"/>
			<point x="382" y="360"/>
			<point x="354" y="389" type="curve" smooth="yes"/>
			<point x="309" y="437"/>
			<point x="283" y="454"/>
		</contour>
	</outline>
</glyph>
<glyph name="cent" format="2">
	<unicode hex="00A2"/>
	<advance width="626"/>
	<outline>
		<contour>
			<point x="231" y="-116" type="line"/>
			<point x="295" y="-116" type="line"/>
			<point x="449" y="613" type="line"/>
			<point x="385" y="613" type="line"/>
		</contour>
		<contour>
			<point x="468" y="150" type="line"/>
			<point x="430" y="98"/>
			<point x="376" y="69"/>
			<point x="319" y="69" type="curve" smooth="yes"/>
			<point x="238" y="69"/>
			<point x="188" y="121"/>
			<point x="188" y="205" type="curve" smooth="yes"/>
			<point x="188" y="332"/>
			<point x="268" y="427"/>
			<point x="374" y="427" type="curve" smooth="yes"/>
			<point x="433" y="427"/>
			<point x="476" y="400"/>
			<point x="502" y="348" type="curve"/>
			<point x="578" y="402" type="line"/>
			<point x="539" y="472"/>
			<point x="465" y="513"/>
			<point x="377" y="513" type="curve" smooth="yes"/>
			<point x="212" y="513"/>
			<point x="84" y="376"/>
			<point x="84" y="201" type="curve" smooth="yes"/>
			<point x="84" y="71"/>
			<point x="175" y="-16"/>
			<point x="310" y="-16" type="curve" smooth="yes"/>
			<point x="391" y="-16"/>
			<point x="468" y="19"/>
			<point x="524" y="81" type="curve"/>
		</contour>
	</outline>
</glyph>
<glyph name="yen" format="2">
	<unicode hex="00A5"/>
	<advance width="629"/>
	<outline>
		<contour>
			<point x="79" y="119" type="line"/>
			<point x="498" y="119" type="line"/>
			<point x="515" y="197" type="line"/>
			<point x="95" y="197" type="line"/>
		</contour>
		<contour>
			<point x="113" y="277" type="line"/>
			<point x="532" y="277" type="line"/>
			<point x="548" y="355" type="line"/>
			<point x="129" y="355" type="line"/>
		</contour>
		<contour>
			<point x="212" y="0" type="line"/>
			<point x="314" y="0" type="line"/>
			<point x="380" y="309" type="line"/>
			<point x="704" y="715" type="line"/>
			<point x="589" y="715" type="line"/>
			<point x="330" y="378" type="line"/>
			<point x="355" y="378" type="line"/>
			<point x="237" y="715" type="line"/>
			<point x="126" y="715" type="line"/>
			<point x="278" y="311" type="line"/>
		</contour>
	</outline>
</glyph>
<glyph name="section" format="2">
	<unicode hex="00A7"/>
	<advance width="527"/>
	<outline>
		<contour>
			<point x="1" y="-36" type="line"/>
			<point x="38" y="-93"/>
			<point x="112" y="-129"/>
			<point x="196" y="-129" type="curve" smooth="yes"/>
			<point x="323" y="-129"/>
			<point x="418" y="-47"/>
			<point x="418" y="62" type="curve" smooth="yes"/>
			<point x="418" y="108"/>
			<point x="405" y="138"/>
			<point x="372" y="167" type="curve"/>
			<point x="453" y="205"/>
			<point x="499" y="264"/>
			<point x="499" y="329" type="curve" smooth="yes"/>
			<point x="499" y="397"/>
			<point x="447" y="442"/>
			<point x="334" y="474" type="curve" smooth="yes"/>
			<point x="269" y="492"/>
			<point x="244" y="516"/>
			<point x="244" y="559" type="curve" smooth="yes"/>
			<point x="244" y="617"/>
			<point x="290" y="655"/>
			<point x="358" y="655" type="curve" smooth="yes"/>
			<point x="411" y="655"/>
			<point x="458" y="628"/>
			<point x="487" y="584" type="curve"/>
			<point x="548" y="641" type="line"/>
			<point x="510" y="700"/>
			<point x="449" y="731"/>
			<point x="367" y="731" type="curve" smooth="yes"/>
			<point x="244" y="731"/>
			<point x="153" y="651"/>
			<point x="153" y="543" type="curve" smooth="yes"/>
			<point x="153" y="502"/>
			<point x="168" y="467"/>
			<point x="198" y="441" type="curve"/>
			<point x="114" y="396"/>
			<point x="73" y="346"/>
			<point x="73" y="281" type="curve" smooth="yes"/>
			<point x="73" y="211"/>
			<point x="124" y="166"/>
			<point x="239" y="135" type="curve" smooth="yes"/>
			<point x="304" y="117"/>
			<point x="329" y="92"/>
			<point x="329" y="49" type="curve" smooth="yes"/>
			<point x="329" y="-11"/>
			<point x="278" y="-51"/>
			<point x="202" y="-51" type="curve" smooth="yes"/>
			<point x="142" y="-51"/>
			<point x="91" y="-25"/>
			<point x="61" y="21" type="curve"/>
		</contour>
		<contour>
			<point x="269" y="215" type="line" smooth="yes"/>
			<point x="193" y="237"/>
			<point x="163" y="260"/>
			<point x="163" y="297" type="curve" smooth="yes"/>
			<point x="163" y="341"/>
			<point x="203" y="385"/>
			<point x="264" y="405" type="curve"/>
			<point x="301" y="393" type="line" smooth="yes"/>
			<point x="376" y="372"/>
			<point x="408" y="347"/>
			<point x="408" y="311" type="curve" smooth="yes"/>
			<point x="408" y="266"/>
			<point x="369" y="224"/>
			<point x="307" y="203" type="curve" smooth="yes"/>
		</contour>
	</outline>
	<guideline y="-98"/>
	<guideline y="159"/>
</glyph>
<glyph name="ordfeminine" format="2">
	<unicode hex="00AA"/>
	<advance width="423"/>
	<outline>
		<contour>
			<point x="312" y="312" type="line"/>
			<point x="393" y="312" type="line"/>
			<point x="441" y="535" type="line" smooth="yes"/>
			<point x="445" y="553"/>
			<point x="447" y="570"/>
			<point x="447" y="586" type="curve" smooth="yes"/>
			<point x="447" y="669"/>
			<point x="390" y="715"/>
			<point x="297" y="715" type="curve" smooth="yes"/>
			<point x="227" y="715"/>
			<point x="162" y="688"/>
			<point x="121" y="646" type="curve"/>
			<point x="166" y="593" type="line"/>
			<point x="199" y="628"/>
			<point x="243" y="646"/>
			<point x="286" y="646" type="curve" smooth="yes"/>
			<point x="354" y="646"/>
			<point x="370" y="603"/>
			<point x="359" y="548" type="curve" smooth="yes"/>
			<point x="328" y="401" type="line"/>
			<point x="328" y="384" type="line"/>
		</contour>
		<contour>
			<point x="265" y="554" type="line" smooth="yes"/>
			<point x="140" y="554"/>
			<point x="65" y="500"/>
			<point x="65" y="417" type="curve" smooth="yes"/>
			<point x="65" y="346"/>
			<point x="121" y="300"/>
			<point x="194" y="300" type="curve" smooth="yes"/>
			<point x="279" y="300"/>
			<point x="345" y="367"/>
			<point x="375" y="496" type="curve"/>
			<point x="362" y="510" type="line"/>
			<point x="332" y="419"/>
			<point x="276" y="367"/>
			<point x="217" y="367" type="curve" smooth="yes"/>
			<point x="179" y="367"/>
			<point x="157" y="390"/>
			<point x="157" y="421" type="curve" smooth="yes"/>
			<point x="157" y="466"/>
			<point x="195" y="495"/>
			<point x="265" y="495" type="curve" smooth="yes"/>
			<point x="352" y="495" type="line"/>
			<point x="371" y="554" type="line"/>
		</contour>
	</outline>
</glyph>
<glyph name="logicalnot" format="2">
	<unicode hex="00AC"/>
	<advance width="631"/>
	<outline>
		<contour>
			<point x="135" y="317" type="line"/>
			<point x="445" y="317" type="line"/>
			<point x="413" y="166" type="line"/>
			<point x="494" y="166" type="line"/>
			<point x="543" y="399" type="line"/>
			<point x="152" y="399" type="line"/>
		</contour>
	</outline>
</glyph>
<glyph name="registered" format="2">
	<unicode hex="00AE"/>
	<advance width="514"/>
	<outline>
		<contour>
			<point x="224" y="384" type="line"/>
			<point x="267" y="384" type="line"/>
			<point x="267" y="565" type="line"/>
			<point x="314" y="565" type="line" smooth="yes"/>
			<point x="335" y="565"/>
			<point x="350" y="552"/>
			<point x="350" y="533" type="curve" smooth="yes"/>
			<point x="350" y="515"/>
			<point x="335" y="502"/>
			<point x="314" y="502" type="curve" smooth="yes"/>
			<point x="263" y="502" type="line"/>
			<point x="263" y="464" type="line"/>
			<point x="314" y="464" type="line" smooth="yes"/>
			<point x="361" y="464"/>
			<point x="393" y="492"/>
			<point x="393" y="533" type="curve" smooth="yes"/>
			<point x="393" y="574"/>
			<point x="361" y="604"/>
			<point x="314" y="604" type="curve" smooth="yes"/>
			<point x="224" y="604" type="line"/>
		</contour>
		<contour>
			<point x="359" y="384" type="line"/>
			<point x="411" y="384" type="line"/>
			<point x="334" y="473" type="line"/>
			<point x="284" y="473" type="line"/>
		</contour>
		<contour>
			<point x="306" y="317" type="curve" smooth="yes"/>
			<point x="215" y="317"/>
			<point x="146" y="387"/>
			<point x="146" y="488" type="curve" smooth="yes"/>
			<point x="146" y="589"/>
			<point x="215" y="659"/>
			<point x="306" y="659" type="curve" smooth="yes"/>
			<point x="397" y="659"/>
			<point x="466" y="589"/>
			<point x="466" y="488" type="curve" smooth="yes"/>
			<point x="466" y="387"/>
			<point x="397" y="317"/>
		</contour>
		<contour>
			<point x="306" y="259" type="curve" smooth="yes"/>
			<point x="428" y="259"/>
			<point x="526" y="361"/>
			<point x="526" y="488" type="curve" smooth="yes"/>
			<point x="526" y="615"/>
			<point x="428" y="717"/>
			<point x="306" y="717" type="curve" smooth="yes"/>
			<point x="184" y="717"/>
			<point x="86" y="615"/>
			<point x="86" y="488" type="curve" smooth="yes"/>
			<point x="86" y="361"/>
			<point x="184" y="259"/>
		</contour>
	</outline>
</glyph>
<glyph name="degree" format="2">
	<unicode hex="00B0"/>
	<advance width="453"/>
	<outline>
		<contour>
			<point x="268" y="382" type="curve" smooth="yes"/>
			<point x="379" y="382"/>
			<point x="469" y="470"/>
			<point x="469" y="579" type="curve" smooth="yes"/>
			<point x="469" y="668"/>
			<point x="406" y="731"/>
			<point x="318" y="731" type="curve" smooth="yes"/>
			<point x="207" y="731"/>
			<point x="118" y="643"/>
			<point x="118" y="534" type="curve" smooth="yes"/>
			<point x="118" y="445"/>
			<point x="180" y="382"/>
		</contour>
		<contour>
			<point x="277" y="456" type="curve" smooth="yes"/>
			<point x="230" y="456"/>
			<point x="199" y="490"/>
			<point x="199" y="541" type="curve" smooth="yes"/>
			<point x="199" y="606"/>
			<point x="247" y="657"/>
			<point x="309" y="657" type="curve" smooth="yes"/>
			<point x="357" y="657"/>
			<point x="388" y="623"/>
			<point x="388" y="572" type="curve" smooth="yes"/>
			<point x="388" y="507"/>
			<point x="339" y="456"/>
		</contour>
	</outline>
	<guideline y="382"/>
</glyph>
<glyph name="Eth" format="2">
	<unicode hex="00D0"/>
	<advance width="749"/>
	<outline>
		<contour>
			<point x="52" y="320" type="line"/>
			<point x="382" y="320" type="line"/>
			<point x="400" y="408" type="line"/>
			<point x="71" y="408" type="line"/>
		</contour>
		<contour>
			<point x="46" y="0" type="line"/>
			<point x="284" y="0" type="line" smooth="yes"/>
			<point x="541" y="0"/>
			<point x="722" y="178"/>
			<point x="722" y="430" type="curve" smooth="yes"/>
			<point x="722" y="604"/>
			<point x="607" y="715"/>
			<point x="426" y="715" type="curve" smooth="yes"/>
			<point x="197" y="715" type="line"/>
		</contour>
		<contour>
			<point x="168" y="90" type="line"/>
			<point x="282" y="625" type="line"/>
			<point x="413" y="625" type="line" smooth="yes"/>
			<point x="538" y="625"/>
			<point x="614" y="548"/>
			<point x="614" y="420" type="curve" smooth="yes"/>
			<point x="614" y="226"/>
			<point x="482" y="90"/>
			<point x="295" y="90" type="curve" smooth="yes"/>
		</contour>
	</outline>
</glyph>
<glyph name="multiply" format="2">
	<unicode hex="00D7"/>
	<advance width="632"/>
	<outline>
		<contour>
			<point x="420" y="171" type="line"/>
			<point x="488" y="227" type="line"/>
			<point x="262" y="542" type="line"/>
			<point x="194" y="486" type="line"/>
		</contour>
		<contour>
			<point x="187" y="167" type="line"/>
			<point x="544" y="483" type="line"/>
			<point x="494" y="545" type="line"/>
			<point x="138" y="230" type="line"/>
		</contour>
	</outline>
	<guideline x="86" y="0" angle="102"/>
	<guideline x="320" y="0" angle="102"/>
</glyph>
<glyph name="Oslash" format="2">
	<unicode hex="00D8"/>
	<advance width="819"/>
	<outline>
		<contour>
			<point x="59" y="-26" type="line"/>
			<point x="855" y="675" type="line"/>
			<point x="803" y="741" type="line"/>
			<point x="7" y="40" type="line"/>
		</contour>
		<contour>
			<point x="379" y="-16" type="curve" smooth="yes"/>
			<point x="610" y="-16"/>
			<point x="788" y="189"/>
			<point x="788" y="423" type="curve" smooth="yes"/>
			<point x="788" y="607"/>
			<point x="669" y="731"/>
			<point x="484" y="731" type="curve" smooth="yes"/>
			<point x="252" y="731"/>
			<point x="74" y="526"/>
			<point x="74" y="293" type="curve" smooth="yes"/>
			<point x="74" y="108"/>
			<point x="193" y="-16"/>
		</contour>
		<contour>
			<point x="386" y="77" type="curve" smooth="yes"/>
			<point x="262" y="77"/>
			<point x="182" y="164"/>
			<point x="182" y="297" type="curve" smooth="yes"/>
			<point x="182" y="476"/>
			<point x="313" y="638"/>
			<point x="477" y="638" type="curve" smooth="yes"/>
			<point x="600" y="638"/>
			<point x="680" y="551"/>
			<point x="680" y="418" type="curve" smooth="yes"/>
			<point x="680" y="239"/>
			<point x="549" y="77"/>
		</contour>
	</outline>
	<guideline y="518"/>
	<guideline y="691"/>
</glyph>
<glyph name="Thorn" format="2">
	<unicode hex="00DE"/>
	<advance width="638"/>
	<outline>
		<contour>
			<point x="46" y="0" type="line"/>
			<point x="149" y="0" type="line"/>
			<point x="301" y="715" type="line"/>
			<point x="198" y="715" type="line"/>
		</contour>
		<contour>
			<point x="171" y="148" type="line"/>
			<point x="332" y="148" type="line" smooth="yes"/>
			<point x="502" y="148"/>
			<point x="611" y="246"/>
			<point x="611" y="386" type="curve" smooth="yes"/>
			<point x="611" y="494"/>
			<point x="538" y="565"/>
			<point x="411" y="565" type="curve" smooth="yes"/>
			<point x="259" y="565" type="line"/>
			<point x="240" y="476" type="line"/>
			<point x="396" y="476" type="line" smooth="yes"/>
			<point x="467" y="476"/>
			<point x="506" y="441"/>
			<point x="506" y="381" type="curve" smooth="yes"/>
			<point x="506" y="294"/>
			<point x="446" y="237"/>
			<point x="346" y="237" type="curve" smooth="yes"/>
			<point x="190" y="237" type="line"/>
		</contour>
	</outline>
</glyph>
<glyph name="oslash" format="2">
	<unicode hex="00F8"/>
	<advance width="600"/>
	<outline>
		<contour>
			<point x="31" y="-31" type="line"/>
			<point x="611" y="473" type="line"/>
			<point x="569" y="526" type="line"/>
			<point x="-10" y="23" type="line"/>
		</contour>
		<contour>
			<point x="47" y="203" type="curve" smooth="yes"/>
			<point x="47" y="70"/>
			<point x="136" y="-16"/>
			<point x="274" y="-16" type="curve" smooth="yes"/>
			<point x="429" y="-16"/>
			<point x="556" y="123"/>
			<point x="556" y="294" type="curve" smooth="yes"/>
			<point x="556" y="427"/>
			<point x="467" y="513"/>
			<point x="329" y="513" type="curve" smooth="yes"/>
			<point x="174" y="513"/>
			<point x="47" y="374"/>
		</contour>
		<contour>
			<point x="274" y="70" type="curve" smooth="yes"/>
			<point x="199" y="70"/>
			<point x="152" y="122"/>
			<point x="152" y="203" type="curve" smooth="yes"/>
			<point x="152" y="328"/>
			<point x="231" y="427"/>
			<point x="329" y="427" type="curve" smooth="yes"/>
			<point x="404" y="427"/>
			<point x="451" y="374"/>
			<point x="451" y="294" type="curve" smooth="yes"/>
			<point x="451" y="169"/>
			<point x="373" y="70"/>
		</contour>
	</outline>
</glyph>
<glyph name="IJ" format="2">
	<unicode hex="0132"/>
	<advance width="684"/>
	<outline>
		<contour>
			<point x="102" y="329" type="line"/>
			<point x="204" y="329" type="line"/>
			<point x="285" y="715" type="line"/>
			<point x="183" y="715" type="line"/>
		</contour>
		<contour>
			<point x="83" y="231" type="line"/>
			<point x="81" y="216"/>
			<point x="80" y="200"/>
			<point x="80" y="186" type="curve" smooth="yes"/>
			<point x="80" y="60"/>
			<point x="173" y="-16"/>
			<point x="294" y="-16" type="curve" smooth="yes"/>
			<point x="467" y="-16"/>
			<point x="561" y="75"/>
			<point x="602" y="267" type="curve" smooth="yes"/>
			<point x="698" y="715" type="line"/>
			<point x="596" y="715" type="line"/>
			<point x="501" y="275" type="line" smooth="yes"/>
			<point x="472" y="142"/>
			<point x="412" y="77"/>
			<point x="308" y="77" type="curve" smooth="yes"/>
			<point x="225" y="77"/>
			<point x="181" y="124"/>
			<point x="181" y="209" type="curve" smooth="yes"/>
			<point x="181" y="220"/>
			<point x="182" y="232"/>
			<point x="184" y="243" type="curve"/>
		</contour>
	</outline>
	<anchor name="top.UC_2" x="649" y="750"/>
	<anchor name="top.UC_1" x="240" y="750"/>
</glyph>
<glyph name="Lslash" format="2">
	<unicode hex="0141"/>
	<advance width="571"/>
	<outline>
		<contour>
			<point x="37" y="195" type="line"/>
			<point x="416" y="424" type="line"/>
			<point x="388" y="497" type="line"/>
			<point x="9" y="268" type="line"/>
		</contour>
		<contour>
			<point x="46" y="0" type="line"/>
			<point x="484" y="0" type="line"/>
			<point x="503" y="90" type="line"/>
			<point x="168" y="90" type="line"/>
			<point x="300" y="715" type="line"/>
			<point x="197" y="715" type="line"/>
		</contour>
	</outline>
	<guideline x="89" y="0" angle="102"/>
</glyph>
<glyph name="eng" format="2">
	<unicode hex="014B"/>
	<advance width="583"/>
	<outline>
		<contour>
			<point x="27" y="0" type="line"/>
			<point x="127" y="0" type="line"/>
			<point x="161" y="162" type="line" smooth="yes"/>
			<point x="200" y="342"/>
			<point x="262" y="427"/>
			<point x="352" y="427" type="curve" smooth="yes"/>
			<point x="400" y="427"/>
			<point x="429" y="398"/>
			<point x="429" y="347" type="curve" smooth="yes"/>
			<point x="429" y="331"/>
			<point x="426" y="308"/>
			<point x="419" y="276" type="curve" smooth="yes"/>
			<point x="350" y="-53" type="line" smooth="yes"/>
			<point x="341" y="-95"/>
			<point x="323" y="-111"/>
			<point x="284" y="-111" type="curve" smooth="yes"/>
			<point x="252" y="-111" type="line"/>
			<point x="235" y="-194" type="line"/>
			<point x="302" y="-194" type="line" smooth="yes"/>
			<point x="382" y="-194"/>
			<point x="429" y="-155"/>
			<point x="447" y="-67" type="curve" smooth="yes"/>
			<point x="521" y="282" type="line" smooth="yes"/>
			<point x="528" y="318"/>
			<point x="531" y="342"/>
			<point x="531" y="361" type="curve" smooth="yes"/>
			<point x="531" y="456"/>
			<point x="472" y="513"/>
			<point x="389" y="513" type="curve" smooth="yes"/>
			<point x="306" y="513"/>
			<point x="233" y="459"/>
			<point x="190" y="361" type="curve"/>
			<point x="202" y="360" type="line"/>
			<point x="231" y="497" type="line"/>
			<point x="132" y="497" type="line"/>
		</contour>
	</outline>
</glyph>
<glyph name="oe" format="2">
	<unicode hex="0153"/>
	<advance width="957"/>
	<outline>
		<contour>
			<point x="508" y="220" type="line"/>
			<point x="719" y="220" type="line" smooth="yes"/>
			<point x="844" y="220"/>
			<point x="917" y="272"/>
			<point x="917" y="359" type="curve" smooth="yes"/>
			<point x="917" y="450"/>
			<point x="839" y="513"/>
			<point x="728" y="513" type="curve" smooth="yes"/>
			<point x="575" y="513"/>
			<point x="451" y="373"/>
			<point x="451" y="200" type="curve" smooth="yes"/>
			<point x="451" y="66"/>
			<point x="533" y="-16"/>
			<point x="669" y="-16" type="curve" smooth="yes"/>
			<point x="754" y="-16"/>
			<point x="825" y="16"/>
			<point x="883" y="81" type="curve"/>
			<point x="828" y="148" type="line"/>
			<point x="787" y="95"/>
			<point x="733" y="67"/>
			<point x="674" y="67" type="curve" smooth="yes"/>
			<point x="590" y="67"/>
			<point x="537" y="120"/>
			<point x="537" y="202" type="curve" smooth="yes"/>
			<point x="537" y="335"/>
			<point x="616" y="430"/>
			<point x="726" y="430" type="curve" smooth="yes"/>
			<point x="782" y="430"/>
			<point x="821" y="400"/>
			<point x="821" y="357" type="curve" smooth="yes"/>
			<point x="821" y="315"/>
			<point x="784" y="293"/>
			<point x="714" y="293" type="curve" smooth="yes"/>
			<point x="508" y="293" type="line"/>
		</contour>
		<contour>
			<point x="254" y="-16" type="curve" smooth="yes"/>
			<point x="407" y="-16"/>
			<point x="527" y="124"/>
			<point x="527" y="304" type="curve" smooth="yes"/>
			<point x="527" y="432"/>
			<point x="449" y="513"/>
			<point x="327" y="513" type="curve" smooth="yes"/>
			<point x="170" y="513"/>
			<point x="43" y="374"/>
			<point x="43" y="203" type="curve" smooth="yes"/>
			<point x="43" y="73"/>
			<point x="129" y="-16"/>
		</contour>
		<contour>
			<point x="270" y="69" type="curve" smooth="yes"/>
			<point x="195" y="69"/>
			<point x="148" y="122"/>
			<point x="148" y="203" type="curve" smooth="yes"/>
			<point x="148" y="328"/>
			<point x="227" y="427"/>
			<point x="325" y="427" type="curve" smooth="yes"/>
			<point x="400" y="427"/>
			<point x="448" y="374"/>
			<point x="448" y="294" type="curve" smooth="yes"/>
			<point x="448" y="169"/>
			<point x="369" y="69"/>
		</contour>
	</outline>
	<guideline y="353"/>
</glyph>
<glyph name="dotlessj" format="2">
	<unicode hex="0237"/>
	<advance width="247"/>
	<outline>
		<contour>
			<point x="-97" y="-194" type="line"/>
			<point x="-40" y="-194" type="line" smooth="yes"/>
			<point x="47" y="-194"/>
			<point x="90" y="-156"/>
			<point x="110" y="-64" type="curve" smooth="yes"/>
			<point x="230" y="497" type="line"/>
			<point x="130" y="497" type="line"/>
			<point x="13" y="-51" type="line" smooth="yes"/>
			<point x="4" y="-92"/>
			<point x="-12" y="-111"/>
			<point x="-50" y="-111" type="curve" smooth="yes"/>
			<point x="-80" y="-111" type="line"/>
		</contour>
	</outline>
	<anchor name="top.LC" x="189" y="544"/>
</glyph>
<glyph name="gravecomb" format="2">
	<unicode hex="0300"/>
	<outline>
		<contour>
			<point x="-41" y="587" type="line"/>
			<point x="42" y="587" type="line"/>
			<point x="-27" y="761" type="line"/>
			<point x="-137" y="761" type="line"/>
		</contour>
	</outline>
	<anchor name="_top.LC" x="0" y="544"/>
</glyph>
<glyph name="brevecomb" format="2">
	<unicode hex="0306"/>
	<outline>
		<contour>
			<point x="-109" y="739" type="line"/>
			<point x="-111" y="724"/>
			<point x="-111" y="718"/>
			<point x="-111" y="711" type="curve" smooth="yes"/>
			<point x="-111" y="634"/>
			<point x="-63" y="583"/>
			<point x="10" y="583" type="curve" smooth="yes"/>
			<point x="104" y="583"/>
			<point x="161" y="633"/>
			<point x="193" y="739" type="curve"/>
			<point x="116" y="739" type="line"/>
			<point x="97" y="682"/>
			<point x="66" y="654"/>
			<point x="23" y="654" type="curve" smooth="yes"/>
			<point x="-13" y="654"/>
			<point x="-34" y="680"/>
			<point x="-34" y="724" type="curve" smooth="yes"/>
			<point x="-34" y="728"/>
			<point x="-34" y="734"/>
			<point x="-33" y="739" type="curve"/>
		</contour>
	</outline>
	<anchor name="_top.LC" x="0" y="544"/>
</glyph>
<glyph name="dieresiscomb" format="2">
	<unicode hex="0308"/>
	<outline>
		<contour>
			<point x="-83" y="610" type="curve" smooth="yes"/>
			<point x="-39" y="610"/>
			<point x="-7" y="645"/>
			<point x="-7" y="687" type="curve" smooth="yes"/>
			<point x="-7" y="715"/>
			<point x="-27" y="736"/>
			<point x="-57" y="736" type="curve" smooth="yes"/>
			<point x="-102" y="736"/>
			<point x="-134" y="702"/>
			<point x="-134" y="660" type="curve" smooth="yes"/>
			<point x="-134" y="631"/>
			<point x="-114" y="610"/>
		</contour>
		<contour>
			<point x="116" y="610" type="curve" smooth="yes"/>
			<point x="160" y="610"/>
			<point x="192" y="645"/>
			<point x="192" y="687" type="curve" smooth="yes"/>
			<point x="192" y="715"/>
			<point x="172" y="736"/>
			<point x="142" y="736" type="curve" smooth="yes"/>
			<point x="97" y="736"/>
			<point x="65" y="702"/>
			<point x="65" y="660" type="curve" smooth="yes"/>
			<point x="65" y="631"/>
			<point x="86" y="610"/>
		</contour>
	</outline>
	<anchor name="_top.LC" x="0" y="544"/>
</glyph>
<glyph name="ringcomb" format="2">
	<unicode hex="030A"/>
	<outline>
		<contour>
			<point x="50" y="788" type="curve" smooth="yes"/>
			<point x="-28" y="788"/>
			<point x="-85" y="730"/>
			<point x="-85" y="651" type="curve" smooth="yes"/>
			<point x="-85" y="601"/>
			<point x="-46" y="562"/>
			<point x="4" y="562" type="curve"/>
			<point x="83" y="562"/>
			<point x="140" y="620"/>
			<point x="140" y="700" type="curve" smooth="yes"/>
			<point x="140" y="750"/>
			<point x="101" y="788"/>
		</contour>
		<contour>
			<point x="38" y="730" type="curve" smooth="yes"/>
			<point x="62" y="730"/>
			<point x="78" y="713"/>
			<point x="78" y="687" type="curve" smooth="yes"/>
			<point x="78" y="648"/>
			<point x="51" y="620"/>
			<point x="16" y="620" type="curve"/>
			<point x="-8" y="620"/>
			<point x="-23" y="638"/>
			<point x="-23" y="664" type="curve" smooth="yes"/>
			<point x="-23" y="702"/>
			<point x="3" y="730"/>
		</contour>
	</outline>
	<anchor name="_top.LC" x="0" y="544"/>
</glyph>
<glyph name="hungarumlautcomb" format="2">
	<unicode hex="030B"/>
	<outline>
		<contour>
			<point x="-159" y="587" type="line"/>
			<point x="-70" y="587" type="line"/>
			<point x="120" y="761" type="line"/>
			<point x="5" y="761" type="line"/>
		</contour>
		<contour>
			<point x="11" y="587" type="line"/>
			<point x="101" y="587" type="line"/>
			<point x="300" y="761" type="line"/>
			<point x="185" y="761" type="line"/>
		</contour>
	</outline>
	<anchor name="_top.LC" x="0" y="544"/>
</glyph>
<glyph name="commaaboverightcomb" format="2">
	<unicode hex="0315"/>
	<outline>
		<contour>
			<point x="-18" y="509" type="line"/>
			<point x="40" y="570"/>
			<point x="78" y="637"/>
			<point x="78" y="681" type="curve" smooth="yes"/>
			<point x="78" y="713"/>
			<point x="60" y="731"/>
			<point x="29" y="731" type="curve" smooth="yes"/>
			<point x="-8" y="731"/>
			<point x="-37" y="702"/>
			<point x="-37" y="663" type="curve" smooth="yes"/>
			<point x="-37" y="637"/>
			<point x="-18" y="615"/>
			<point x="10" y="615" type="curve"/>
			<point x="1" y="633" type="line"/>
			<point x="-5" y="600"/>
			<point x="-35" y="547"/>
			<point x="-72" y="509" type="curve"/>
		</contour>
	</outline>
	<anchor name="_top_right" x="0" y="540"/>
</glyph>
<glyph name="dotbelowcomb" format="2">
	<unicode hex="0323"/>
	<outline>
		<contour>
			<point x="-40" y="-242" type="curve" smooth="yes"/>
			<point x="4" y="-242"/>
			<point x="36" y="-208"/>
			<point x="36" y="-166" type="curve" smooth="yes"/>
			<point x="36" y="-137"/>
			<point x="16" y="-116"/>
			<point x="-14" y="-116" type="curve" smooth="yes"/>
			<point x="-58" y="-116"/>
			<point x="-91" y="-150"/>
			<point x="-91" y="-193" type="curve" smooth="yes"/>
			<point x="-91" y="-221"/>
			<point x="-70" y="-242"/>
		</contour>
	</outline>
	<anchor name="_bottom.LC" x="0" y="-50"/>
</glyph>
<glyph name="cedillacomb" format="2">
	<unicode hex="0327"/>
	<outline>
		<contour>
			<point x="-139" y="-220" type="line"/>
			<point x="-116" y="-246"/>
			<point x="-88" y="-258"/>
			<point x="-47" y="-258" type="curve" smooth="yes"/>
			<point x="38" y="-258"/>
			<point x="94" y="-205"/>
			<point x="94" y="-131" type="curve" smooth="yes"/>
			<point x="94" y="-83"/>
			<point x="53" y="-50"/>
			<point x="-10" y="-50" type="curve"/>
			<point x="8" y="-79" type="line"/>
			<point x="51" y="10" type="line"/>
			<point x="-8" y="10" type="line"/>
			<point x="-67" y="-113" type="line"/>
			<point x="-57" y="-110"/>
			<point x="-44" y="-108"/>
			<point x="-27" y="-108" type="curve" smooth="yes"/>
			<point x="2" y="-108"/>
			<point x="20" y="-121"/>
			<point x="20" y="-143" type="curve" smooth="yes"/>
			<point x="20" y="-174"/>
			<point x="-4" y="-194"/>
			<point x="-36" y="-194" type="curve" smooth="yes"/>
			<point x="-61" y="-194"/>
			<point x="-79" y="-186"/>
			<point x="-97" y="-169" type="curve"/>
		</contour>
	</outline>
	<anchor name="_bottom.LC" x="0" y="-50"/>
</glyph>
<glyph name="dagger" format="2">
	<unicode hex="2020"/>
	<advance width="440"/>
	<outline>
		<contour>
			<point x="74" y="413" type="line"/>
			<point x="440" y="413" type="line"/>
			<point x="458" y="497" type="line"/>
			<point x="91" y="497" type="line"/>
		</contour>
		<contour>
			<point x="93" y="-129" type="line"/>
			<point x="191" y="-129" type="line"/>
			<point x="374" y="736" type="line"/>
			<point x="276" y="736" type="line"/>
		</contour>
	</outline>
</glyph>
<glyph name="Euro" format="2">
	<unicode hex="20AC"/>
	<advance width="630"/>
	<outline>
		<contour>
			<point x="525" y="171" type="line"/>
			<point x="469" y="106"/>
			<point x="407" y="72"/>
			<point x="342" y="72" type="curve" smooth="yes"/>
			<point x="250" y="72"/>
			<point x="198" y="138"/>
			<point x="198" y="253" type="curve" smooth="yes"/>
			<point x="198" y="466"/>
			<point x="318" y="643"/>
			<point x="465" y="643" type="curve" smooth="yes"/>
			<point x="533" y="643"/>
			<point x="579" y="613"/>
			<point x="611" y="548" type="curve"/>
			<point x="684" y="608" type="line"/>
			<point x="644" y="687"/>
			<point x="572" y="731"/>
			<point x="482" y="731" type="curve" smooth="yes"/>
			<point x="272" y="731"/>
			<point x="95" y="508"/>
			<point x="95" y="243" type="curve" smooth="yes"/>
			<point x="95" y="82"/>
			<point x="181" y="-16"/>
			<point x="322" y="-16" type="curve" smooth="yes"/>
			<point x="423" y="-16"/>
			<point x="507" y="24"/>
			<point x="581" y="103" type="curve"/>
		</contour>
		<contour>
			<point x="22" y="241" type="line"/>
			<point x="428" y="241" type="line"/>
			<point x="459" y="318" type="line"/>
			<point x="39" y="318" type="line"/>
		</contour>
		<contour>
			<point x="56" y="399" type="line"/>
			<point x="489" y="399" type="line"/>
			<point x="520" y="476" type="line"/>
			<point x="72" y="476" type="line"/>
		</contour>
	</outline>
	<guideline y="480"/>
	<guideline y="694"/>
</glyph>
<glyph name="rupeeindian" format="2">
	<unicode hex="20B9"/>
	<advance width="631"/>
	<outline>
		<contour>
			<point x="103" y="470" type="line"/>
			<point x="602" y="470" type="line"/>
			<point x="633" y="548" type="line"/>
			<point x="119" y="548" type="line"/>
		</contour>
		<contour>
			<point x="138" y="637" type="line"/>
			<point x="356" y="637" type="line" smooth="yes"/>
			<point x="425" y="637"/>
			<point x="469" y="601"/>
			<point x="469" y="546" type="curve" smooth="yes"/>
			<point x="469" y="450"/>
			<point x="397" y="382"/>
			<point x="295" y="382" type="curve" smooth="yes"/>
			<point x="85" y="382" type="line"/>
			<point x="68" y="304" type="line"/>
			<point x="372" y="0" type="line"/>
			<point x="519" y="0" type="line"/>
			<point x="193" y="322" type="line"/>
			<point x="185" y="304" type="line"/>
			<point x="284" y="304" type="line" smooth="yes"/>
			<point x="443" y="304"/>
			<point x="566" y="413"/>
			<point x="566" y="553" type="curve" smooth="yes"/>
			<point x="566" y="594"/>
			<point x="548" y="629"/>
			<point x="514" y="653" type="curve"/>
			<point x="508" y="637" type="line"/>
			<point x="666" y="637" type="line"/>
			<point x="696" y="715" type="line"/>
			<point x="154" y="715" type="line"/>
		</contour>
	</outline>
</glyph>
<glyph name="liraturkish" format="2">
	<unicode hex="20BA"/>
	<advance width="629"/>
	<outline>
		<contour>
			<point x="72" y="0" type="line"/>
			<point x="231" y="0" type="line" smooth="yes"/>
			<point x="442" y="0"/>
			<point x="563" y="105"/>
			<point x="611" y="330" type="curve" smooth="yes"/>
			<point x="613" y="340" type="line"/>
			<point x="516" y="346" type="line"/>
			<point x="511" y="326" type="line" smooth="yes"/>
			<point x="478" y="166"/>
			<point x="389" y="85"/>
			<point x="247" y="85" type="curve" smooth="yes"/>
			<point x="193" y="85" type="line"/>
			<point x="326" y="715" type="line"/>
			<point x="223" y="715" type="line"/>
		</contour>
		<contour>
			<point x="24" y="207" type="line"/>
			<point x="421" y="369" type="line"/>
			<point x="439" y="450" type="line"/>
			<point x="41" y="287" type="line"/>
		</contour>
		<contour>
			<point x="59" y="370" type="line"/>
			<point x="456" y="533" type="line"/>
			<point x="473" y="613" type="line"/>
			<point x="75" y="450" type="line"/>
		</contour>
	</outline>
</glyph>
<glyph name="cedillacomb.cap" format="2">
	<outline>
		<contour>
			<point x="-137" y="-220" type="line"/>
			<point x="-114" y="-246"/>
			<point x="-83" y="-258"/>
			<point x="-39" y="-258" type="curve" smooth="yes"/>
			<point x="44" y="-258"/>
			<point x="104" y="-205"/>
			<point x="104" y="-132" type="curve" smooth="yes"/>
			<point x="104" y="-82"/>
			<point x="62" y="-49"/>
			<point x="-2" y="-49" type="curve"/>
			<point x="17" y="-80" type="line"/>
			<point x="53" y="10" type="line"/>
			<point x="-7" y="10" type="line"/>
			<point x="-60" y="-115" type="line"/>
			<point x="-46" y="-112"/>
			<point x="-32" y="-110"/>
			<point x="-21" y="-110" type="curve" smooth="yes"/>
			<point x="10" y="-110"/>
			<point x="27" y="-122"/>
			<point x="27" y="-144" type="curve" smooth="yes"/>
			<point x="27" y="-173"/>
			<point x="3" y="-193"/>
			<point x="-33" y="-193" type="curve" smooth="yes"/>
			<point x="-57" y="-193"/>
			<point x="-80" y="-182"/>
			<point x="-93" y="-167" type="curve"/>
		</contour>
	</outline>
	<anchor name="_bottom.UC" x="0" y="-50"/>
</glyph>
<glyph name="dotaccentcomb.cap" format="2">
	<outline>
		<contour>
			<point x="10" y="800" type="curve" smooth="yes"/>
			<point x="57" y="800"/>
			<point x="90" y="836"/>
			<point x="90" y="880" type="curve" smooth="yes"/>
			<point x="90" y="911"/>
			<point x="70" y="931"/>
			<point x="38" y="931" type="curve" smooth="yes"/>
			<point x="-8" y="931"/>
			<point x="-42" y="895"/>
			<point x="-42" y="852" type="curve" smooth="yes"/>
			<point x="-42" y="820"/>
			<point x="-21" y="800"/>
		</contour>
	</outline>
	<anchor name="_top.UC" x="0" y="750"/>
</glyph>
<glyph name="four.dnom" format="2">
	<advance width="405"/>
	<outline>
		<contour>
			<point x="185" y="0" type="line"/>
			<point x="263" y="0" type="line"/>
			<point x="350" y="408" type="line"/>
			<point x="272" y="408" type="line"/>
			<point x="16" y="154" type="line"/>
			<point x="3" y="89" type="line"/>
			<point x="338" y="89" type="line"/>
			<point x="352" y="154" type="line"/>
			<point x="76" y="154" type="line"/>
			<point x="82" y="140" type="line"/>
			<point x="265" y="329" type="line"/>
			<point x="256" y="335" type="line"/>
		</contour>
	</outline>
</glyph>
<glyph name="hungarumlautcomb.cap" format="2">
	<outline>
		<contour>
			<point x="-157" y="789" type="line"/>
			<point x="-59" y="789" type="line"/>
			<point x="132" y="953" type="line"/>
			<point x="8" y="953" type="line"/>
		</contour>
		<contour>
			<point x="16" y="789" type="line"/>
			<point x="115" y="789" type="line"/>
			<point x="315" y="953" type="line"/>
			<point x="191" y="953" type="line"/>
		</contour>
	</outline>
	<anchor name="_top.UC" x="0" y="750"/>
</glyph>
<glyph name="nine.dnom" format="2">
	<advance width="389"/>
	<outline>
		<contour>
			<point x="130" y="0" type="line"/>
			<point x="291" y="118"/>
			<point x="355" y="202"/>
			<point x="355" y="299" type="curve" smooth="yes"/>
			<point x="355" y="370"/>
			<point x="305" y="417"/>
			<point x="227" y="417" type="curve" smooth="yes"/>
			<point x="119" y="417"/>
			<point x="44" y="347"/>
			<point x="44" y="244" type="curve" smooth="yes"/>
			<point x="44" y="180"/>
			<point x="89" y="138"/>
			<point x="157" y="138" type="curve" smooth="yes"/>
			<point x="196" y="138"/>
			<point x="231" y="160"/>
			<point x="258" y="200" type="curve"/>
			<point x="249" y="204" type="line"/>
			<point x="219" y="146"/>
			<point x="155" y="88"/>
			<point x="24" y="0" type="curve"/>
		</contour>
		<contour>
			<point x="123" y="259" type="curve" smooth="yes"/>
			<point x="123" y="311"/>
			<point x="163" y="350"/>
			<point x="216" y="350" type="curve" smooth="yes"/>
			<point x="253" y="350"/>
			<point x="277" y="326"/>
			<point x="277" y="292" type="curve" smooth="yes"/>
			<point x="277" y="244"/>
			<point x="234" y="202"/>
			<point x="186" y="202" type="curve" smooth="yes"/>
			<point x="148" y="202"/>
			<point x="123" y="224"/>
		</contour>
	</outline>
</glyph>
<glyph name="ogonekcomb.cap" format="2">
	<outline>
		<contour>
			<point x="67" y="-171" type="line"/>
			<point x="55" y="-173"/>
			<point x="44" y="-174"/>
			<point x="38" y="-174" type="curve" smooth="yes"/>
			<point x="10" y="-174"/>
			<point x="-10" y="-160"/>
			<point x="-10" y="-131" type="curve" smooth="yes"/>
			<point x="-10" y="-68"/>
			<point x="56" y="-24"/>
			<point x="103" y="0" type="curve"/>
			<point x="41" y="22" type="line"/>
			<point x="-28" y="-20"/>
			<point x="-97" y="-82"/>
			<point x="-97" y="-163" type="curve" smooth="yes"/>
			<point x="-97" y="-220"/>
			<point x="-54" y="-250"/>
			<point x="9" y="-250" type="curve" smooth="yes"/>
			<point x="23" y="-250"/>
			<point x="36" y="-249"/>
			<point x="51" y="-246" type="curve"/>
		</contour>
	</outline>
	<anchor name="_ogonek.UC" x="0" y="-30"/>
</glyph>
<glyph name="zero.dnom" format="2">
	<advance width="406"/>
	<outline>
		<contour>
			<point x="161" y="-9" type="curve" smooth="yes"/>
			<point x="269" y="-9"/>
			<point x="356" y="113"/>
			<point x="356" y="266" type="curve" smooth="yes"/>
			<point x="356" y="361"/>
			<point x="309" y="417"/>
			<point x="227" y="417" type="curve" smooth="yes"/>
			<point x="119" y="417"/>
			<point x="32" y="295"/>
			<point x="32" y="142" type="curve" smooth="yes"/>
			<point x="32" y="47"/>
			<point x="79" y="-9"/>
		</contour>
		<contour>
			<point x="167" y="58" type="curve" smooth="yes"/>
			<point x="131" y="58"/>
			<point x="113" y="86"/>
			<point x="113" y="141" type="curve" smooth="yes"/>
			<point x="113" y="257"/>
			<point x="161" y="350"/>
			<point x="222" y="350" type="curve" smooth="yes"/>
			<point x="257" y="350"/>
			<point x="275" y="322"/>
			<point x="275" y="267" type="curve" smooth="yes"/>
			<point x="275" y="151"/>
			<point x="227" y="58"/>
		</contour>
	</outline>
</glyph>
